<svg width="135" height="133" viewBox="0 0 135 133" fill="none" xmlns="http://www.w3.org/2000/svg">
<circle cx="95" cy="20" r="15" fill="#ECF0F1"/>
<circle cx="15" cy="66" r="15" fill="#ECF0F1"/>
<circle cx="95" cy="112" r="15" fill="#ECF0F1"/>
<circle cx="120" cy="66" r="15" fill="#ECF0F1"/>
<path d="M48.9904 33.4808C41.816 37.6229 32.6421 35.1648 28.5 27.9904C24.3579 20.816 26.816 11.6421 33.9904 7.5C41.1648 3.35786 50.3386 5.81599 54.4808 12.9904C58.6229 20.1648 56.1648 29.3386 48.9904 33.4808Z" fill="#19BC9B"/>
<path d="M75.2452 78.9555C68.0708 83.0976 58.897 80.6395 54.7548 73.4651C50.6127 66.2907 53.0708 57.1168 60.2452 52.9747C67.4196 48.8326 76.5935 51.2907 80.7356 58.4651C84.8777 65.6395 82.4196 74.8133 75.2452 78.9555Z" fill="#19BC9B"/>
<path d="M78.4434 58.7366C61.7743 46.235 56.0965 36.4007 53.6044 15.7141C53.5181 14.9975 52.7272 14.5913 52.1022 14.9521L31.5881 26.796C30.963 27.1568 30.9195 28.0448 31.4968 28.4779C48.1659 40.9795 53.8437 50.8137 56.3359 71.5004C56.4222 72.2169 57.213 72.6232 57.8381 72.2623L78.3522 60.4185C78.9772 60.0576 79.0208 59.1696 78.4434 58.7366Z" fill="#19BC9B" stroke="#19BC9B" stroke-width="3" stroke-linecap="round"/>
<path d="M48.9904 98.9747C41.816 94.8325 32.6421 97.2907 28.5 104.465C24.3579 111.639 26.816 120.813 33.9904 124.955C41.1648 129.098 50.3386 126.639 54.4808 119.465C58.6229 112.291 56.1648 103.117 48.9904 98.9747Z" fill="#19BC9B"/>
<path d="M75.2452 53.5C68.0708 49.3579 58.897 51.816 54.7548 58.9904C50.6127 66.1648 53.0708 75.3386 60.2452 79.4808C67.4196 83.6229 76.5935 81.1648 80.7356 73.9904C84.8777 66.816 82.4196 57.6421 75.2452 53.5Z" fill="#19BC9B"/>
<path d="M78.4434 73.7189C61.7743 86.2205 56.0965 96.0547 53.6044 116.741C53.5181 117.458 52.7272 117.864 52.1022 117.503L31.5881 105.659C30.963 105.299 30.9195 104.411 31.4968 103.978C48.1659 91.476 53.8437 81.6417 56.3359 60.9551C56.4222 60.2385 57.213 59.8323 57.8381 60.1931L78.3522 72.037C78.9772 72.3978 79.0208 73.2858 78.4434 73.7189Z" fill="#19BC9B" stroke="#19BC9B" stroke-width="3" stroke-linecap="round"/>
</svg>
